HIERARCHY
ROOT Hips
{
  OFFSET -331.093 83.8371 -317.828
  CHANNELS 6 Xposition Yposition Zposition Zrotation Xrotation Yrotation
  JOINT LeftUpLeg
  {
    OFFSET 8.64259 1.95398 -2.38835
    CHANNELS 3 Zrotation Xrotation Yrotation
    JOINT LeftLeg
    {
      OFFSET 43.7702 0 0
      CHANNELS 3 Zrotation Xrotation Yrotation
      JOINT LeftFoot
      {
        OFFSET 40.6238 0 0
        CHANNELS 3 Zrotation Xrotation Yrotation
        JOINT LeftToeBase
        {
          OFFSET 12.7242 0 0
          CHANNELS 3 Zrotation Xrotation Yrotation
          End Site
          {
            OFFSET 0 0 0
          }
        }
      }
    }
  }
  JOINT RightUpLeg
  {
    OFFSET -8.2249 1.95398 -2.59336
    CHANNELS 3 Zrotation Xrotation Yrotation
    JOINT RightLeg
    {
      OFFSET 43.5653 0 0
      CHANNELS 3 Zrotation Xrotation Yrotation
      JOINT RightFoot
      {
        OFFSET 40.6238 0 0
        CHANNELS 3 Zrotation Xrotation Yrotation
        JOINT RightToeBase
        {
          OFFSET 12.7242 0 0
          CHANNELS 3 Zrotation Xrotation Yrotation
          End Site
          {
            OFFSET 0 0 0
          }
        }
      }
    }
  }
  JOINT Spine
  {
    OFFSET 0.165834 0.87714 6.61349
    CHANNELS 3 Zrotation Xrotation Yrotation
    JOINT Spine1
    {
      OFFSET 7.38963 1.71661e-005 0
      CHANNELS 3 Zrotation Xrotation Yrotation
      JOINT Spine2
      {
        OFFSET 11.9445 1.14441e-005 0
        CHANNELS 3 Zrotation Xrotation Yrotation
        JOINT Spine3
        {
          OFFSET 14.7254 4.19617e-005 0
          CHANNELS 3 Zrotation Xrotation Yrotation
          JOINT Spine4
          {
            OFFSET 10.9679 0 0
            CHANNELS 3 Zrotation Xrotation Yrotation
            JOINT RightShoulder
            {
              OFFSET 2.46616 -1.6653 3.69651
              CHANNELS 3 Zrotation Xrotation Yrotation
              JOINT RightArm
              {
                OFFSET 13.0012 0 0
                CHANNELS 3 Zrotation Xrotation Yrotation
                JOINT RightForeArm
                {
                  OFFSET 28.7848 1.62311e-005 0
                  CHANNELS 3 Zrotation Xrotation Yrotation
                  JOINT RightHand
                  {
                    OFFSET 26.5688 1.62095e-005 0
                    CHANNELS 3 Zrotation Xrotation Yrotation
                    End Site
                    {
                      OFFSET 0 0 0
                    }
                  }
                }
              }
            }
            JOINT LeftShoulder
            {
              OFFSET 2.38034 -1.29275 -3.7523
              CHANNELS 3 Zrotation Xrotation Yrotation
              JOINT LeftArm
              {
                OFFSET 16.3182 6.07031e-005 0
                CHANNELS 3 Zrotation Xrotation Yrotation
                JOINT LeftForeArm
                {
                  OFFSET 27.0901 0 0
                  CHANNELS 3 Zrotation Xrotation Yrotation
                  JOINT LeftHand
                  {
                    OFFSET 24.5451 1.51738e-005 0
                    CHANNELS 3 Zrotation Xrotation Yrotation
                    End Site
                    {
                      OFFSET 0 0 0
                    }
                  }
                }
              }
            }
            JOINT Neck
            {
              OFFSET 5.0226 -0.0266342 0
              CHANNELS 3 Zrotation Xrotation Yrotation
              JOINT Head
              {
                OFFSET 6.69364 2.86102e-005 0
                CHANNELS 3 Zrotation Xrotation Yrotation
                End Site
                {
                  OFFSET 0 0 0
                }
              }
            }
          }
        }
      }
    }
  }
}
MOTION
Frames:	17
Frame Time:	0.0416667
-49.4778 81.5861 -48.4955 106.17 -38.7028 104.166 -169.048 41.4998 89.4362 -42.2114 12.88 -6.54692 57.2394 -3.03633 -0.0628476 7.02118 -15.8055 3.61617 167.271 46.5957 97.0651 -90.2428 0.313706 -0.42971 59.9347 -1.10621 -1.16885 25.6599 -0.643658 -7.73897 0.788957 9.27067 -90.4292 8.33761 1.38547 -0.93214 -3.33298 1.34312 -0.992227 -25.8732 1.60155 -0.472592 -5.86055 1.60157 -0.472578 91.3 -38.9684 -101.061 25.3725 -6.32307 5.33266 14.7526 6.20107 -77.8652 -17.1691 -0.276364 -3.30802 -89.7467 -43.3977 78.0692 -41.8803 4.09047 18.0607 12.8885 10.9442 -50.575 19.8067 1.93764 5.94959 -26.891 -17.9052 -9.24421 24.4726 -20.5537 -8.03294 
-45.8093 79.5814 -45.0006 105.149 -38.1873 101.747 -168.543 46.4659 85.968 -53.43 13.289 -4.63279 56.9773 -1.94883 3.11362 16.0047 -9.15722 1.83173 169.355 51.1701 93.9468 -84.4162 1.16823 -0.275226 63.4126 -1.92135 -1.63515 29.0851 -0.879526 -7.39132 0.551937 9.34221 -90.1903 8.19169 1.01813 -0.435792 -3.47895 0.997957 -0.480186 -26.0172 1.10202 -0.109626 -6.00453 1.102 -0.109633 91.2941 -39.7217 -100.869 23.3405 -6.5632 1.16007 13.3268 7.41549 -75.1058 -16.1523 -0.349707 -2.59993 -90.4541 -43.6733 77.0075 -40.5177 5.10664 18.9147 13.3629 14.9573 -46.3323 17.9583 1.84077 6.37881 -24.0531 -17.7821 -8.98931 22.9999 -20.1826 -8.72333 
-42.7918 79.0985 -41.7323 105.482 -35.8101 100.232 -168.081 46.5323 83.7366 -57.996 13.2906 -3.97267 56.3088 -2.76082 2.12807 22.1631 -4.70293 1.0275 171.429 50.7046 89.8742 -71.2504 1.66985 0.0952179 63.3661 -1.5876 -1.28299 26.3965 -0.500193 -5.5743 0.333075 9.69838 -90.0574 7.47754 0.640069 -0.144614 -4.19326 0.633098 -0.172655 -26.7297 0.653949 0.0544524 -6.71704 0.65394 0.0544352 90.813 -39.8771 -101.659 22.4529 -4.46906 -1.28339 12.6618 8.88821 -72.7859 -13.7848 -0.335313 -2.11323 -91.9784 -44.365 74.7792 -37.3868 7.05062 17.6617 11.2377 16.7856 -41.2901 16.0405 1.44083 5.05724 -20.3743 -18.3777 -8.65051 21.81 -20.4106 -9.17848 
-39.5034 78.234 -38.2474 105.978 -36.877 100.889 -166.143 47.7452 84.1202 -65.5455 12.2776 -3.49244 58.3362 -0.932338 3.40914 31.0387 1.21124 -1.91852 174.058 48.824 89.4516 -55.1229 -0.607447 0.251352 58.2168 0.971176 0.485285 18.477 0.077525 -4.74052 0.616078 9.90821 -90.1805 7.05954 1.15293 -0.406076 -4.61098 1.13393 -0.456434 -27.1502 1.22166 -0.0407542 -7.13753 1.22164 -0.0407574 90.2446 -38.8383 -102.943 22.0973 -2.69564 -1.65336 10.7856 8.55458 -70.4489 -13.9312 -0.230735 -2.98388 -92.5751 -44.6089 73.9119 -35.613 8.79704 16.3176 9.34866 18.3036 -37.0647 14.5535 1.25557 4.6622 -19.0546 -19.0613 -7.97632 22.2596 -20.8977 -8.7973 
-36.512 77.4303 -34.8799 105.16 -37.7278 101.442 -164.701 49.2579 84.978 -72.4386 11.0788 -2.662 62.8961 2.14669 3.64851 33.6245 3.2834 -1.1619 175.577 45.9367 90.3553 -36.6326 -7.45933 0.423068 48.2024 5.21388 4.11111 15.2436 0.221101 -7.78344 0.8539 9.91496 -90.3546 7.04851 1.55308 -0.766371 -4.62177 1.51788 -0.834 -27.1641 1.71161 -0.264052 -7.15142 1.71161 -0.264055 90.3206 -39.0195 -102.758 20.5196 -2.64052 -2.61307 7.99959 7.48805 -68.2196 -15.2152 -0.293947 -2.73084 -92.5162 -44.4622 73.9626 -34.7729 8.15063 16.9837 9.30621 19.1863 -36.1059 14.7903 1.32422 4.98511 -19.5745 -19.0025 -8.01246 23.4358 -20.8544 -8.28834 
-33.9892 77.2906 -31.5691 104.053 -36.4734 101.125 -164.809 49.1764 85.4471 -76.4032 10.4351 -1.79109 66.5006 5.05771 4.28879 34.6527 4.04198 -1.16042 175.264 42.6357 90.8521 -23.3416 -8.53956 0.817193 39.914 7.92722 7.09168 18.4298 -0.0335629 -7.96894 0.737067 9.95309 -90.4883 6.97266 1.26261 -1.01618 -4.69811 1.21668 -1.07077 -27.2369 1.50963 -0.589688 -7.22421 1.50963 -0.589694 89.9399 -38.9324 -103.447 18.7072 -3.31001 -4.45789 5.30037 6.18222 -64.642 -16.3385 -0.427391 -2.08249 -91.8091 -44.3637 75.0454 -34.1709 6.36353 18.6936 10.6283 18.9007 -38.1369 14.7668 1.50672 6.20169 -19.5809 -18.8145 -6.47802 23.737 -20.7812 -8.87426 
-31.4614 76.4933 -27.9386 102.852 -34.0229 99.7524 -165.486 50.2878 85.1863 -81.6922 13.0329 -0.645927 65.5009 4.75952 4.89421 39.5592 8.34356 0.53896 173.967 44.2243 90.5233 -26.1195 -4.63484 1.53401 38.7709 7.86845 7.21104 14.405 0.298842 -6.38912 0.669648 9.97634 -90.509 6.92527 1.11937 -1.04995 -4.74566 1.07208 -1.0982 -27.2831 1.38317 -0.664973 -7.27042 1.38317 -0.664981 89.5827 -40.509 -103.588 16.4209 -3.35625 -4.21722 3.35029 4.63772 -63.4024 -16.6064 -0.562586 -1.22165 -91.5741 -43.4002 75.1512 -33.2486 6.48546 20.5264 10.9732 17.6527 -39.9882 16.1993 1.70699 6.59098 -20.3539 -18.847 -8.01561 25.143 -20.8768 -8.33076 
-29.5691 75.6306 -24.4002 101.728 -30.4052 98.2061 -166.708 52.6008 85.0095 -87.1871 16.4089 0.602863 63.8526 3.48524 4.00657 35.258 6.91474 6.44853 172.916 47.6111 89.7769 -36.5314 -5.66323 1.90222 45.9139 5.84155 4.69515 12.2491 0.362986 -2.71197 0.547488 10.0368 -90.5852 6.80319 0.843459 -1.18674 -4.86805 0.790413 -1.22271 -27.4027 1.16113 -0.878401 -7.39009 1.16113 -0.8784 90.2235 -40.5222 -102.49 15.9751 -2.82979 -4.48743 1.46191 3.7521 -61.2014 -15.9382 -0.537323 -1.22036 -91.6157 -42.6969 74.888 -31.7547 7.54422 21.1083 10.9438 16.8029 -40.8401 15.7188 1.65239 6.54317 -20.2788 -19.6133 -9.07302 25.952 -21.653 -8.16782 
-27.7468 74.199 -20.8252 100.975 -27.3409 97.9705 -169.266 56.0463 87.1692 -93.3538 20.9367 1.73227 60.6973 0.936153 3.10686 32.5398 6.33644 11.9842 172.438 52.4691 90.2209 -48.8871 -4.38799 1.79867 52.153 3.32452 2.27114 14.8283 0.241581 -3.41215 0.521905 10.0965 -90.72 6.68357 0.735484 -1.44664 -4.988 0.671115 -1.4776 -27.5204 1.13624 -1.15877 -7.50771 1.13623 -1.15877 90.3928 -40.5138 -102.203 15.8384 -1.79802 -4.34978 -2.38792 1.52688 -59.6142 -14.0785 -0.448591 -1.42671 -91.2607 -41.7934 75.2069 -30.0952 8.78756 21.7451 11.7529 16.6259 -42.4369 15.3145 1.55738 6.19331 -20.1119 -20.3224 -10.2478 26.6751 -22.3258 -7.88732 
-25.8101 72.5845 -17.4278 101.266 -26.1498 98.8668 -172.583 57.7384 91.3489 -98.5422 24.108 2.52676 61.0576 1.56601 4.39967 33.6404 7.21778 11.5989 171.73 55.5546 92.1513 -57.5934 -3.6264 1.50097 55.1085 1.80986 1.00069 17.5514 0.14656 -2.50449 0.62888 10.2697 -90.8979 6.33784 0.876183 -1.79723 -5.3341 0.796257 -1.83404 -27.8646 1.37575 -1.45092 -7.85194 1.37577 -1.45092 89.8153 -39.86 -103.384 15.2266 -0.848287 -4.64623 -5.56776 -0.872228 -57.6395 -15.5974 -0.536096 -1.25567 -91.2532 -41.7151 75.1969 -28.4701 9.18801 22.5836 11.7225 15.3488 -43.816 15.5487 1.61107 6.39105 -19.1139 -20.788 -10.3228 26.8928 -22.6302 -7.65871 
-24.5921 71.8187 -14.7958 101.583 -25.115 99.1338 -173.814 58.074 93.3572 -101.239 24.8428 3.05791 59.5568 1.35132 5.27611 36.4288 10.6885 13.8249 169.376 56.3456 93.7904 -60.743 -2.67345 1.97543 56.9973 1.20738 0.534743 16.369 0.198989 -1.64402 0.636488 10.4705 -90.9818 5.93608 0.859531 -1.95543 -5.73611 0.772645 -1.99135 -28.265 1.40743 -1.60683 -8.25231 1.40739 -1.60685 89.3119 -39.6442 -104.316 13.4525 -1.16773 -6.80569 -4.85459 -0.474013 -53.8587 -14.8861 -0.552725 -0.916363 -91.3172 -41.6002 75.0603 -27.4196 9.62587 23.0915 11.9483 15.1538 -44.5762 16.1712 1.73984 6.80714 -17.7916 -21.2763 -10.11 26.1729 -22.9619 -7.82672 
-22.6998 70.062 -11.7878 101.558 -23.9946 98.4646 -173.664 58.8887 93.9769 -106.938 23.7563 3.52956 58.6536 0.521512 5.04962 39.8674 13.611 12.7779 167.877 59.2992 94.5433 -66.8925 -2.26292 1.90354 59.2734 -0.0382335 -0.400494 19.1341 0.0918651 -2.28065 0.619154 10.5665 -91.0227 5.74365 0.809301 -2.0315 -5.92868 0.719144 -2.06514 -28.4564 1.38236 -1.6945 -8.4437 1.38236 -1.6945 89.4024 -39.4392 -104.223 12.0685 -1.1367 -8.15939 -6.69102 -2.19828 -51.7098 -15.1285 -0.654231 -0.231216 -91.3277 -41.5618 75.0324 -26.4819 11.2044 23.2702 11.5443 15.0458 -44.5839 14.6903 1.72794 7.67851 -17.5377 -21.7163 -9.69639 26.2614 -23.3999 -7.96791 
-20.7879 68.1921 -9.24694 101.866 -23.2428 98.2813 -173.564 58.6193 94.577 -112.826 24.9773 3.86879 55.5336 -1.63789 5.15636 47.5816 20.4144 11.3441 165.384 61.7094 96.0958 -72.6236 -1.83504 1.9237 61.6616 -1.19082 -1.19673 19.4936 0.0586709 -2.78396 0.703923 10.6376 -91.1491 5.60219 0.927373 -2.28058 -6.07051 0.826137 -2.31916 -28.5964 1.56978 -1.89664 -8.58374 1.56978 -1.89665 89.9304 -38.7719 -103.512 11.0685 -1.43171 -9.23809 -7.34324 -3.66623 -48.6675 -14.1881 -0.72078 0.638814 -91.8093 -41.9542 74.3638 -25.503 12.4558 23.6411 11.4772 15.6201 -44.1628 13.5911 1.44144 6.55319 -17.4507 -22.5112 -9.40954 26.3322 -24.1272 -7.77593 
-18.8699 66.261 -7.04326 102.165 -23.102 98.7143 -174.423 57.4437 96.4745 -118.125 26.8093 4.03923 53.9013 -3.66883 2.72492 48.1122 22.7572 14.4544 162.979 63.8996 99.1638 -78.7635 0.279719 1.6515 63.484 -2.00758 -1.73159 20.3835 0.0880644 -1.39069 0.803235 10.7009 -91.2694 5.47696 1.07693 -2.51835 -6.19607 0.965082 -2.56327 -28.7204 1.78387 -2.07854 -8.70781 1.78385 -2.07855 89.7681 -38.0311 -104.026 10.3563 -1.38949 -9.89441 -7.55515 -4.65021 -46.1058 -13.6059 -0.706881 0.739314 -91.6971 -41.8368 74.5112 -25.4136 12.7489 24.6516 11.0752 15.3172 -44.1309 14.3469 1.49882 6.41381 -17.3098 -22.8795 -8.95315 26.6446 -24.4833 -7.74976 
-17.1831 64.2907 -5.07535 102.114 -22.617 99.2487 -175.684 55.9061 98.616 -121.46 29.778 4.03232 50.928 -6.67368 -0.162063 47.4293 23.8157 17.3652 157.632 65.5437 103.941 -84.701 0.593676 1.55046 66.5002 -3.38076 -2.51975 22.4608 0.0517031 -0.923622 0.87333 10.7285 -91.4007 5.42246 1.163 -2.77701 -6.25103 1.03971 -2.82546 -28.7728 1.94363 -2.29947 -8.76017 1.94364 -2.29947 89.7431 -38.0653 -104.059 9.42777 -1.37179 -10.6148 -8.45533 -6.35541 -44.1731 -13.4991 -0.737339 1.02813 -91.545 -41.7377 74.7295 -25.0091 13.2386 25.6166 11.4297 15.8682 -44.3553 14.3385 1.43475 5.98741 -17.3382 -23.2928 -9.03366 26.9168 -24.9214 -7.83929 
-15.657 62.5251 -3.27803 102.01 -22.1951 98.9976 -175.713 53.5952 98.5627 -122.629 30.5911 4.03956 50.0315 -7.97395 -2.32341 48.5011 29.2162 23.6046 154.74 67.0832 107.175 -90.1389 0.992 0.846804 69.6984 -5.01538 -3.41768 28.4455 -0.189576 -1.77859 0.902531 10.7603 -91.5119 5.35884 1.17612 -2.99416 -6.31514 1.04325 -3.04298 -28.8338 2.02134 -2.50276 -8.82119 2.02134 -2.50274 89.9671 -37.2759 -103.911 8.85351 -1.45054 -11.2232 -9.06396 -8.42039 -41.7317 -13.4203 -0.687043 0.533333 -91.9075 -42.2442 74.2893 -24.7017 13.9056 26.6001 11.1872 15.9179 -44.4276 14.5781 1.48499 6.17402 -16.6828 -23.9474 -8.31473 26.9008 -25.4617 -7.67417 
-14.2397 60.8549 -1.80548 101.877 -21.9108 98.6276 -174.494 51.6123 97.7846 -122.952 30.8007 3.97142 49.7068 -7.51634 -0.432611 46.9556 44.2942 44.0059 151.022 68.3784 110.647 -94.7481 1.31126 0.335486 72.1978 -6.22177 -4.0227 31.5355 -0.419019 -2.52797 0.953195 10.7852 -91.5957 5.30976 1.24336 -3.15926 -6.36455 1.10315 -3.21085 -28.8814 2.13504 -2.64009 -8.86878 2.13503 -2.64009 90.1604 -36.5954 -103.78 8.36358 -1.53482 -11.2108 -8.63781 -9.00782 -39.8681 -12.402 -0.301925 -2.99507 -92.0983 -42.4806 74.0513 -24.4904 14.9808 27.2778 10.835 16.3508 -43.9983 14.6212 1.4823 6.1277 -16.2889 -24.6379 -7.88259 27.2307 -26.0926 -7.57163 
